<mxfile host="app.diagrams.net" modified="2024-05-20T14:54:54.413Z" agent="Mozilla/5.0 (Windows NT 10.0; Win64; x64) AppleWebKit/537.36 (KHTML, like Gecko) Chrome/125.0.0.0 Safari/537.36" etag="TutZsnfY8FbMkW7Ch34K" version="24.4.2" type="device">
  <diagram id="R2lEEEUBdFMjLlhIrx00" name="Page-1">
    <mxGraphModel dx="1804" dy="626" grid="1" gridSize="10" guides="1" tooltips="1" connect="1" arrows="1" fold="1" page="1" pageScale="1" pageWidth="850" pageHeight="1100" math="0" shadow="0" extFonts="Permanent Marker^https://fonts.googleapis.com/css?family=Permanent+Marker">
      <root>
        <mxCell id="0" />
        <mxCell id="1" parent="0" />
        <mxCell id="Ctzbq-bXA89sqDzg6aV6-28" value="poser" style="ellipse;whiteSpace=wrap;html=1;" parent="1" vertex="1">
          <mxGeometry x="520" y="230" width="190" height="80" as="geometry" />
        </mxCell>
        <mxCell id="Ctzbq-bXA89sqDzg6aV6-26" value="placer&lt;div&gt;&lt;br&gt;&lt;/div&gt;&lt;div&gt;&lt;br&gt;&lt;/div&gt;&lt;div&gt;&lt;br&gt;&lt;/div&gt;&lt;div&gt;&lt;br&gt;&lt;/div&gt;" style="ellipse;whiteSpace=wrap;html=1;" parent="1" vertex="1">
          <mxGeometry x="330" y="110" width="120" height="90" as="geometry" />
        </mxCell>
        <mxCell id="Ctzbq-bXA89sqDzg6aV6-3" value="User" style="swimlane;fontStyle=0;childLayout=stackLayout;horizontal=1;startSize=30;horizontalStack=0;resizeParent=1;resizeParentMax=0;resizeLast=0;collapsible=1;marginBottom=0;whiteSpace=wrap;html=1;" parent="1" vertex="1">
          <mxGeometry x="90" y="70" width="140" height="170" as="geometry" />
        </mxCell>
        <mxCell id="Ctzbq-bXA89sqDzg6aV6-4" value="&lt;u&gt;id&lt;/u&gt;" style="text;strokeColor=none;fillColor=none;align=left;verticalAlign=middle;spacingLeft=4;spacingRight=4;overflow=hidden;points=[[0,0.5],[1,0.5]];portConstraint=eastwest;rotatable=0;whiteSpace=wrap;html=1;" parent="Ctzbq-bXA89sqDzg6aV6-3" vertex="1">
          <mxGeometry y="30" width="140" height="30" as="geometry" />
        </mxCell>
        <mxCell id="Ctzbq-bXA89sqDzg6aV6-5" value="pseudo" style="text;strokeColor=none;fillColor=none;align=left;verticalAlign=middle;spacingLeft=4;spacingRight=4;overflow=hidden;points=[[0,0.5],[1,0.5]];portConstraint=eastwest;rotatable=0;whiteSpace=wrap;html=1;" parent="Ctzbq-bXA89sqDzg6aV6-3" vertex="1">
          <mxGeometry y="60" width="140" height="30" as="geometry" />
        </mxCell>
        <mxCell id="Ctzbq-bXA89sqDzg6aV6-16" value="email" style="text;strokeColor=none;fillColor=none;align=left;verticalAlign=middle;spacingLeft=4;spacingRight=4;overflow=hidden;points=[[0,0.5],[1,0.5]];portConstraint=eastwest;rotatable=0;whiteSpace=wrap;html=1;" parent="Ctzbq-bXA89sqDzg6aV6-3" vertex="1">
          <mxGeometry y="90" width="140" height="40" as="geometry" />
        </mxCell>
        <mxCell id="Ctzbq-bXA89sqDzg6aV6-6" value="password" style="text;strokeColor=none;fillColor=none;align=left;verticalAlign=middle;spacingLeft=4;spacingRight=4;overflow=hidden;points=[[0,0.5],[1,0.5]];portConstraint=eastwest;rotatable=0;whiteSpace=wrap;html=1;" parent="Ctzbq-bXA89sqDzg6aV6-3" vertex="1">
          <mxGeometry y="130" width="140" height="40" as="geometry" />
        </mxCell>
        <mxCell id="Ctzbq-bXA89sqDzg6aV6-7" value="Grille" style="swimlane;fontStyle=0;childLayout=stackLayout;horizontal=1;startSize=30;horizontalStack=0;resizeParent=1;resizeParentMax=0;resizeLast=0;collapsible=1;marginBottom=0;whiteSpace=wrap;html=1;" parent="1" vertex="1">
          <mxGeometry x="510" y="350" width="140" height="120" as="geometry" />
        </mxCell>
        <mxCell id="Ctzbq-bXA89sqDzg6aV6-8" value="&lt;u&gt;id&lt;/u&gt;" style="text;strokeColor=none;fillColor=none;align=left;verticalAlign=middle;spacingLeft=4;spacingRight=4;overflow=hidden;points=[[0,0.5],[1,0.5]];portConstraint=eastwest;rotatable=0;whiteSpace=wrap;html=1;" parent="Ctzbq-bXA89sqDzg6aV6-7" vertex="1">
          <mxGeometry y="30" width="140" height="30" as="geometry" />
        </mxCell>
        <mxCell id="Ctzbq-bXA89sqDzg6aV6-9" value="nom" style="text;strokeColor=none;fillColor=none;align=left;verticalAlign=middle;spacingLeft=4;spacingRight=4;overflow=hidden;points=[[0,0.5],[1,0.5]];portConstraint=eastwest;rotatable=0;whiteSpace=wrap;html=1;" parent="Ctzbq-bXA89sqDzg6aV6-7" vertex="1">
          <mxGeometry y="60" width="140" height="30" as="geometry" />
        </mxCell>
        <mxCell id="Ctzbq-bXA89sqDzg6aV6-17" value="taille" style="text;strokeColor=none;fillColor=none;align=left;verticalAlign=middle;spacingLeft=4;spacingRight=4;overflow=hidden;points=[[0,0.5],[1,0.5]];portConstraint=eastwest;rotatable=0;whiteSpace=wrap;html=1;" parent="Ctzbq-bXA89sqDzg6aV6-7" vertex="1">
          <mxGeometry y="90" width="140" height="30" as="geometry" />
        </mxCell>
        <mxCell id="Ctzbq-bXA89sqDzg6aV6-11" value="Pixel" style="swimlane;fontStyle=0;childLayout=stackLayout;horizontal=1;startSize=30;horizontalStack=0;resizeParent=1;resizeParentMax=0;resizeLast=0;collapsible=1;marginBottom=0;whiteSpace=wrap;html=1;" parent="1" vertex="1">
          <mxGeometry x="510" y="40" width="140" height="150" as="geometry" />
        </mxCell>
        <mxCell id="Ctzbq-bXA89sqDzg6aV6-12" value="&lt;u&gt;id&lt;/u&gt;" style="text;strokeColor=none;fillColor=none;align=left;verticalAlign=middle;spacingLeft=4;spacingRight=4;overflow=hidden;points=[[0,0.5],[1,0.5]];portConstraint=eastwest;rotatable=0;whiteSpace=wrap;html=1;" parent="Ctzbq-bXA89sqDzg6aV6-11" vertex="1">
          <mxGeometry y="30" width="140" height="30" as="geometry" />
        </mxCell>
        <mxCell id="Ctzbq-bXA89sqDzg6aV6-44" value="couleur" style="text;strokeColor=none;fillColor=none;align=left;verticalAlign=middle;spacingLeft=4;spacingRight=4;overflow=hidden;points=[[0,0.5],[1,0.5]];portConstraint=eastwest;rotatable=0;whiteSpace=wrap;html=1;" parent="Ctzbq-bXA89sqDzg6aV6-11" vertex="1">
          <mxGeometry y="60" width="140" height="30" as="geometry" />
        </mxCell>
        <mxCell id="Ctzbq-bXA89sqDzg6aV6-13" value="postion X" style="text;strokeColor=none;fillColor=none;align=left;verticalAlign=middle;spacingLeft=4;spacingRight=4;overflow=hidden;points=[[0,0.5],[1,0.5]];portConstraint=eastwest;rotatable=0;whiteSpace=wrap;html=1;" parent="Ctzbq-bXA89sqDzg6aV6-11" vertex="1">
          <mxGeometry y="90" width="140" height="30" as="geometry" />
        </mxCell>
        <mxCell id="Ctzbq-bXA89sqDzg6aV6-46" value="postion Y" style="text;strokeColor=none;fillColor=none;align=left;verticalAlign=middle;spacingLeft=4;spacingRight=4;overflow=hidden;points=[[0,0.5],[1,0.5]];portConstraint=eastwest;rotatable=0;whiteSpace=wrap;html=1;" parent="Ctzbq-bXA89sqDzg6aV6-11" vertex="1">
          <mxGeometry y="120" width="140" height="30" as="geometry" />
        </mxCell>
        <mxCell id="Ctzbq-bXA89sqDzg6aV6-21" value="" style="endArrow=none;html=1;rounded=0;exitX=1;exitY=0.5;exitDx=0;exitDy=0;entryX=1.009;entryY=1.059;entryDx=0;entryDy=0;shadow=0;entryPerimeter=0;" parent="1" source="Ctzbq-bXA89sqDzg6aV6-5" target="Ctzbq-bXA89sqDzg6aV6-30" edge="1">
          <mxGeometry width="50" height="50" relative="1" as="geometry">
            <mxPoint x="410" y="360" as="sourcePoint" />
            <mxPoint x="410" y="180" as="targetPoint" />
            <Array as="points">
              <mxPoint x="290" y="145" />
            </Array>
          </mxGeometry>
        </mxCell>
        <mxCell id="Ctzbq-bXA89sqDzg6aV6-27" value="" style="endArrow=none;html=1;rounded=0;exitX=0.5;exitY=0;exitDx=0;exitDy=0;entryX=1.08;entryY=0.013;entryDx=0;entryDy=0;entryPerimeter=0;" parent="1" source="Ctzbq-bXA89sqDzg6aV6-7" target="Ctzbq-bXA89sqDzg6aV6-31" edge="1">
          <mxGeometry width="50" height="50" relative="1" as="geometry">
            <mxPoint x="560" y="240" as="sourcePoint" />
            <mxPoint x="610" y="190" as="targetPoint" />
          </mxGeometry>
        </mxCell>
        <mxCell id="Ctzbq-bXA89sqDzg6aV6-29" value="0,N" style="text;strokeColor=none;fillColor=none;align=left;verticalAlign=middle;spacingLeft=4;spacingRight=4;overflow=hidden;points=[[0,0.5],[1,0.5]];portConstraint=eastwest;rotatable=0;whiteSpace=wrap;html=1;" parent="1" vertex="1">
          <mxGeometry x="230" y="120" width="30" height="30" as="geometry" />
        </mxCell>
        <mxCell id="Ctzbq-bXA89sqDzg6aV6-30" value="1,1" style="text;strokeColor=none;fillColor=none;align=left;verticalAlign=middle;spacingLeft=4;spacingRight=4;overflow=hidden;points=[[0,0.5],[1,0.5]];portConstraint=eastwest;rotatable=0;whiteSpace=wrap;html=1;" parent="1" vertex="1">
          <mxGeometry x="480" y="115" width="30" height="30" as="geometry" />
        </mxCell>
        <mxCell id="Ctzbq-bXA89sqDzg6aV6-31" value="1,1" style="text;strokeColor=none;fillColor=none;align=left;verticalAlign=middle;spacingLeft=4;spacingRight=4;overflow=hidden;points=[[0,0.5],[1,0.5]];portConstraint=eastwest;rotatable=0;whiteSpace=wrap;html=1;" parent="1" vertex="1">
          <mxGeometry x="550" y="190" width="30" height="30" as="geometry" />
        </mxCell>
        <mxCell id="Ctzbq-bXA89sqDzg6aV6-32" value="0,N" style="text;strokeColor=none;fillColor=none;align=left;verticalAlign=middle;spacingLeft=4;spacingRight=4;overflow=hidden;points=[[0,0.5],[1,0.5]];portConstraint=eastwest;rotatable=0;whiteSpace=wrap;html=1;" parent="1" vertex="1">
          <mxGeometry x="550" y="320" width="30" height="30" as="geometry" />
        </mxCell>
        <mxCell id="Ctzbq-bXA89sqDzg6aV6-34" value="&lt;div&gt;&lt;span style=&quot;background-color: initial;&quot;&gt;creer&lt;/span&gt;&lt;br&gt;&lt;/div&gt;&lt;div&gt;&lt;span style=&quot;background-color: initial;&quot;&gt;&lt;br&gt;&lt;/span&gt;&lt;/div&gt;&lt;div&gt;&lt;span style=&quot;background-color: initial;&quot;&gt;&lt;br&gt;&lt;/span&gt;&lt;/div&gt;" style="ellipse;whiteSpace=wrap;html=1;" parent="1" vertex="1">
          <mxGeometry x="290" y="380" width="120" height="80" as="geometry" />
        </mxCell>
        <mxCell id="Ctzbq-bXA89sqDzg6aV6-35" value="" style="endArrow=none;html=1;rounded=0;entryX=0.49;entryY=1.067;entryDx=0;entryDy=0;entryPerimeter=0;exitX=0;exitY=0.5;exitDx=0;exitDy=0;" parent="1" source="Ctzbq-bXA89sqDzg6aV6-9" target="Ctzbq-bXA89sqDzg6aV6-6" edge="1">
          <mxGeometry width="50" height="50" relative="1" as="geometry">
            <mxPoint x="150" y="420" as="sourcePoint" />
            <mxPoint x="200" y="370" as="targetPoint" />
            <Array as="points">
              <mxPoint x="159" y="425" />
            </Array>
          </mxGeometry>
        </mxCell>
        <mxCell id="Ctzbq-bXA89sqDzg6aV6-36" value="1,1" style="text;strokeColor=none;fillColor=none;align=left;verticalAlign=middle;spacingLeft=4;spacingRight=4;overflow=hidden;points=[[0,0.5],[1,0.5]];portConstraint=eastwest;rotatable=0;whiteSpace=wrap;html=1;" parent="1" vertex="1">
          <mxGeometry x="160" y="240" width="30" height="30" as="geometry" />
        </mxCell>
        <mxCell id="Ctzbq-bXA89sqDzg6aV6-37" value="0,N" style="text;strokeColor=none;fillColor=none;align=left;verticalAlign=middle;spacingLeft=4;spacingRight=4;overflow=hidden;points=[[0,0.5],[1,0.5]];portConstraint=eastwest;rotatable=0;whiteSpace=wrap;html=1;" parent="1" vertex="1">
          <mxGeometry x="480" y="400" width="30" height="30" as="geometry" />
        </mxCell>
        <mxCell id="Ctzbq-bXA89sqDzg6aV6-38" value="&lt;font style=&quot;font-size: 24px;&quot;&gt;&lt;span style=&quot;white-space: pre;&quot;&gt;&#x9;&lt;/span&gt;Modèle entité relation :&lt;/font&gt;" style="text;strokeColor=none;fillColor=none;align=left;verticalAlign=middle;spacingLeft=4;spacingRight=4;overflow=hidden;points=[[0,0.5],[1,0.5]];portConstraint=eastwest;rotatable=0;whiteSpace=wrap;html=1;" parent="1" vertex="1">
          <mxGeometry x="-10" y="20" width="320" height="30" as="geometry" />
        </mxCell>
        <mxCell id="Ctzbq-bXA89sqDzg6aV6-39" value="&lt;font style=&quot;font-size: 24px;&quot;&gt;&lt;span style=&quot;white-space: pre;&quot;&gt;&#x9;&lt;/span&gt;Modèle relationnel :&lt;/font&gt;" style="text;strokeColor=none;fillColor=none;align=left;verticalAlign=middle;spacingLeft=4;spacingRight=4;overflow=hidden;points=[[0,0.5],[1,0.5]];portConstraint=eastwest;rotatable=0;whiteSpace=wrap;html=1;" parent="1" vertex="1">
          <mxGeometry x="-10" y="510" width="320" height="30" as="geometry" />
        </mxCell>
        <mxCell id="Ctzbq-bXA89sqDzg6aV6-40" value="&lt;font style=&quot;font-size: 18px;&quot;&gt;User (&lt;i&gt;&lt;b&gt;&lt;u&gt;id&lt;/u&gt;&lt;/b&gt;&lt;/i&gt;, pseudo, email, password)&lt;/font&gt;" style="text;strokeColor=none;fillColor=none;align=left;verticalAlign=middle;spacingLeft=4;spacingRight=4;overflow=hidden;points=[[0,0.5],[1,0.5]];portConstraint=eastwest;rotatable=0;whiteSpace=wrap;html=1;" parent="1" vertex="1">
          <mxGeometry x="50" y="550" width="320" height="30" as="geometry" />
        </mxCell>
        <mxCell id="Ctzbq-bXA89sqDzg6aV6-41" value="&lt;font style=&quot;font-size: 18px;&quot;&gt;Pixel (&lt;i&gt;&lt;b&gt;&lt;u&gt;id&lt;/u&gt;&lt;/b&gt;&lt;/i&gt;, couleur, position,&lt;b style=&quot;text-decoration-line: underline; font-style: italic;&quot;&gt;id_createur&lt;/b&gt;, &lt;b style=&quot;text-decoration-line: underline; font-style: italic;&quot;&gt;id_grille&lt;/b&gt;)&lt;/font&gt;" style="text;strokeColor=none;fillColor=none;align=left;verticalAlign=middle;spacingLeft=4;spacingRight=4;overflow=hidden;points=[[0,0.5],[1,0.5]];portConstraint=eastwest;rotatable=0;whiteSpace=wrap;html=1;" parent="1" vertex="1">
          <mxGeometry x="50" y="580" width="660" height="30" as="geometry" />
        </mxCell>
        <mxCell id="Ctzbq-bXA89sqDzg6aV6-42" value="&lt;font style=&quot;font-size: 18px;&quot;&gt;Grille (&lt;i&gt;&lt;b&gt;&lt;u&gt;id&lt;/u&gt;&lt;/b&gt;&lt;/i&gt;, nom, taille,&amp;nbsp;&lt;b&gt;&lt;i&gt;&lt;u&gt;id_createur&lt;/u&gt;&lt;/i&gt;&lt;/b&gt;)&lt;/font&gt;" style="text;strokeColor=none;fillColor=none;align=left;verticalAlign=middle;spacingLeft=4;spacingRight=4;overflow=hidden;points=[[0,0.5],[1,0.5]];portConstraint=eastwest;rotatable=0;whiteSpace=wrap;html=1;" parent="1" vertex="1">
          <mxGeometry x="50" y="610" width="580" height="30" as="geometry" />
        </mxCell>
      </root>
    </mxGraphModel>
  </diagram>
</mxfile>
